<svg id="Layer_1" data-name="Layer 1" xmlns="http://www.w3.org/2000/svg" viewBox="0 0 32 32"><path d="M24.851,16.423c3.245-3.18,5.107-6.491,3.7-8.644-1.221-1.864-4.223-1.823-7.742-.671C19.84,3.534,18.23,1,16,1c-2.086,0-3.629,2.221-4.609,5.432-.214-.084-.43-.173-.639-.246-3.939-1.394-5.69-.526-6.467.446S3.048,9.5,5.271,13.039a23.379,23.379,0,0,0,1.878,2.538c-3.245,3.18-5.107,6.491-3.7,8.644A3.86,3.86,0,0,0,6.908,25.7,14.232,14.232,0,0,0,11.2,24.9c.965,3.572,2.575,6.1,4.8,6.1,2.086,0,3.629-2.221,4.609-5.432.214.084.43.173.639.246a10.9,10.9,0,0,0,3.573.727,3.47,3.47,0,0,0,2.894-1.173c.777-.972,1.237-2.872-.986-6.407A23.379,23.379,0,0,0,24.851,16.423Zm.291-8.115c.887,0,1.491.2,1.732.567.578.882-.569,3.269-3.364,6.052-.546-.572-1.122-1.142-1.735-1.7a35.378,35.378,0,0,0-.518-4.137A13.136,13.136,0,0,1,25.142,8.308Zm-5.925,12.6c.122-.081.241-.165.363-.247-.094.737-.206,1.435-.337,2.086q-.775-.4-1.572-.876C18.191,21.563,18.708,21.243,19.217,20.91Zm-1.1-1.673c-.8.524-1.581.994-2.341,1.419-.734-.507-1.469-1.052-2.2-1.634-.486-.388-.951-.785-1.406-1.185-.028-.595-.047-1.2-.047-1.837,0-.713.024-1.394.059-2.06.537-.393,1.093-.786,1.689-1.177.8-.528,1.585-.986,2.351-1.413.73.505,1.462,1.049,2.186,1.628.486.388.951.785,1.406,1.185.028.595.047,1.2.047,1.837,0,.713-.024,1.394-.059,2.06C19.273,18.453,18.717,18.846,18.121,19.237ZM9.957,15.716l.181-.156c0,.112-.005.224-.005.336C10.074,15.836,10.014,15.776,9.957,15.716Zm2.461,4.933c.452.36.908.7,1.365,1.036-.385.183-.762.354-1.13.51Q12.521,21.457,12.418,20.649Zm0-9.312c.094-.737.206-1.435.337-2.086.519.269,1.044.56,1.576.878-.522.31-1.041.628-1.55.961C12.661,11.171,12.542,11.255,12.42,11.337Zm7.162.014c-.45-.358-.9-.7-1.358-1.032.383-.181.758-.354,1.124-.509C19.436,10.3,19.514,10.815,19.582,11.351ZM21.867,16.1c.059.06.119.12.176.18l-.181.156C21.863,16.328,21.867,16.216,21.867,16.1ZM16,3c.927,0,2.1,1.759,2.908,4.812-.849.352-1.713.755-2.579,1.2a31.893,31.893,0,0,0-3.084-1.756C14.045,4.547,15.13,3,16,3ZM6.965,11.974C5.538,9.706,5.471,8.352,5.848,7.881a1.709,1.709,0,0,1,1.344-.416,8.991,8.991,0,0,1,2.894.606c.262.093.532.2.8.311a34.051,34.051,0,0,0-.635,4.512q-.846.651-1.631,1.328A21.365,21.365,0,0,1,6.965,11.974ZM5.126,23.125c-.578-.882.569-3.269,3.364-6.052.546.572,1.122,1.142,1.735,1.7a35.471,35.471,0,0,0,.519,4.144C7.747,23.915,5.633,23.9,5.126,23.125ZM16,29c-.927,0-2.1-1.762-2.909-4.818.848-.352,1.709-.753,2.573-1.2a32.175,32.175,0,0,0,3.091,1.761C17.955,27.454,16.87,29,16,29Zm10.152-4.881c-.375.472-1.711.7-4.238-.19-.262-.093-.532-.2-.8-.311a34.051,34.051,0,0,0,.635-4.512q.846-.651,1.631-1.328a21.365,21.365,0,0,1,1.657,2.248C26.462,22.294,26.529,23.648,26.152,24.119Z" id="id_102" style="fill: rgb(237, 237, 237);"></path></svg>